<svg width="26" height="26" viewBox="0 0 26 26" fill="none" xmlns="http://www.w3.org/2000/svg">
<g clip-path="url(#clip0_216_212)">
<path fill-rule="evenodd" clip-rule="evenodd" d="M13.2111 25.7888C20.2742 25.7888 25.9999 20.063 25.9999 13C25.9999 5.93694 20.2742 0.211212 13.2111 0.211212C6.14809 0.211212 0.422363 5.93694 0.422363 13C0.422363 20.063 6.14809 25.7888 13.2111 25.7888Z" fill="white"/>
<path fill-rule="evenodd" clip-rule="evenodd" d="M8.94688 25.0606C3.98045 23.3046 0.422363 18.5678 0.422363 13C0.422363 7.43218 3.98045 2.6954 8.94688 0.939392V25.0606Z" fill="#009246"/>
<path fill-rule="evenodd" clip-rule="evenodd" d="M26.0001 12.9708V13.0291C25.9877 18.5843 22.4334 23.3077 17.4756 25.0606V0.939377C22.4334 2.69231 25.9877 7.41563 26.0001 12.9708Z" fill="#CE2B37"/>
<path fill-rule="evenodd" clip-rule="evenodd" d="M13.2111 25.0428C19.8622 25.0428 25.2539 19.651 25.2539 13C25.2539 6.34896 19.8622 0.957224 13.2111 0.957224C6.56011 0.957224 1.16838 6.34896 1.16838 13C1.16838 19.651 6.56011 25.0428 13.2111 25.0428ZM13.2111 25.7888C20.2742 25.7888 25.9999 20.063 25.9999 13C25.9999 5.93694 20.2742 0.211212 13.2111 0.211212C6.14809 0.211212 0.422363 5.93694 0.422363 13C0.422363 20.063 6.14809 25.7888 13.2111 25.7888Z" fill="#D9D9D9"/>
</g>
<defs>
<clipPath id="clip0_216_212">
<rect x="0.422363" y="0.211212" width="25.5776" height="25.5776" fill="white"/>
</clipPath>
</defs>
</svg>
