<svg width="700" height="811" viewBox="0 0 700 811" fill="none" xmlns="http://www.w3.org/2000/svg">
<path d="M699.001 350C699.001 542.195 543.196 698 351.001 698C158.805 698 3.00058 542.195 3.00058 350C3.00058 157.805 158.805 2.00002 351.001 2.00002C543.196 2.00002 699.001 157.805 699.001 350Z" fill="white"/>
<path d="M443.766 89.126C430.273 112.527 426.629 140.33 433.636 166.418C440.642 192.506 457.725 214.742 481.126 228.234C504.527 241.727 532.33 245.371 558.418 238.364C584.506 231.358 606.742 214.275 620.234 190.874L622.963 192.447C609.053 216.572 586.13 234.183 559.235 241.406C532.341 248.629 503.678 244.873 479.553 230.963C455.428 217.053 437.817 194.13 430.594 167.235C423.371 140.341 427.127 111.678 441.037 87.5527L443.766 89.126Z" fill="#E1BA54"/>
<path d="M350.466 30.5488C359.208 46.6714 372.141 60.135 387.9 69.5166C403.66 78.8982 421.66 83.8496 440 83.8496V87C421.093 87 402.536 81.8944 386.289 72.2227C370.043 62.5509 356.709 48.6719 347.696 32.0508L350.466 30.5488Z" fill="#E1BA54"/>
<path d="M442 613.15C423.944 613.15 406.212 617.95 390.622 627.059C375.032 636.167 362.143 649.256 353.276 664.984L350.532 663.438C359.673 647.222 372.961 633.728 389.033 624.338C405.106 614.948 423.386 610 442 610V613.15Z" fill="#E1BA54"/>
<path d="M351.667 34.2061C342.555 50.5173 329.257 64.1024 313.143 73.5586C297.029 83.0147 278.684 88 260 88V84.8496C278.123 84.8496 295.918 80.0143 311.549 70.8418C327.179 61.6693 340.079 48.4918 348.917 32.6699L351.667 34.2061Z" fill="#E1BA54"/>
<path d="M260.458 610.01C278.826 610.265 296.806 615.334 312.602 624.712C328.397 634.09 341.457 647.448 350.476 663.451L347.731 664.998C338.984 649.475 326.316 636.517 310.994 627.421C295.672 618.325 278.231 613.408 260.414 613.16L260.458 610.01Z" fill="#E1BA54"/>
<path d="M443.79 85.916C452.729 101.401 465.586 114.261 481.07 123.202C496.555 132.143 514.12 136.85 532 136.85V140C513.567 140 495.458 135.147 479.495 125.93C463.532 116.712 450.277 103.455 441.062 87.4912L443.79 85.916Z" fill="#E1BA54"/>
<path d="M634 349C634 293.219 588.781 248 533 248C477.219 248 432 293.219 432 349C432 404.781 477.219 450 533 450V454C475.01 454 428 406.99 428 349C428 291.01 475.01 244 533 244C590.99 244 638 291.01 638 349C638 406.99 590.99 454 533 454V450C588.781 450 634 404.781 634 349Z" fill="#E1BA54"/>
<path d="M480.479 466.509C504.744 452.845 533.444 449.379 560.264 456.875C587.084 464.371 609.827 482.215 623.491 506.479L620.746 508.025C607.492 484.489 585.431 467.18 559.416 459.909C533.401 452.638 505.562 456 482.025 469.254C458.488 482.508 441.18 504.569 433.909 530.584C426.638 556.599 430 584.438 443.254 607.975L440.509 609.521C426.845 585.256 423.379 556.556 430.875 529.736C438.371 502.916 456.215 480.173 480.479 466.509Z" fill="#E1BA54"/>
<path d="M532.854 560.15C514.677 560.177 496.838 565.066 481.189 574.312C465.541 583.559 452.652 596.824 443.859 612.732L441.103 611.209C450.167 594.809 463.455 581.133 479.588 571.601C495.721 562.069 514.11 557.027 532.849 557L532.854 560.15Z" fill="#E1BA54"/>
<path d="M451 138C451 82.2192 405.781 37 350 37C294.219 37 249 82.2192 249 138C249 193.781 294.219 239 350 239V243C292.01 243 245 195.99 245 138C245 80.0101 292.01 33 350 33C407.99 33 455 80.0101 455 138C455 195.99 407.99 243 350 243V239C405.781 239 451 193.781 451 138Z" fill="#E1BA54"/>
<path d="M442.06 85.498C433.112 101.81 419.99 115.452 404.038 125.027C388.086 134.603 369.875 139.767 351.271 139.992C332.667 140.217 314.338 135.496 298.158 126.31C281.979 117.124 268.531 103.803 259.19 87.7119L261.914 86.1309C270.974 101.739 284.02 114.66 299.714 123.57C315.408 132.481 333.188 137.061 351.233 136.843C369.279 136.624 386.943 131.614 402.417 122.326C417.891 113.038 430.618 99.8054 439.298 83.9824L442.06 85.498Z" fill="#E1BA54"/>
<path d="M451 349C451 293.219 405.781 248 350 248C294.219 248 249 293.219 249 349C249 404.781 294.219 450 350 450V454C292.01 454 245 406.99 245 349C245 291.01 292.01 244 350 244C407.99 244 455 291.01 455 349C455 406.99 407.99 454 350 454V450C405.781 450 451 404.781 451 349Z" fill="#E1BA54"/>
<path d="M451 558C451 502.219 405.781 457 350 457C294.219 457 249 502.219 249 558C249 613.781 294.219 659 350 659V663C292.01 663 245 615.99 245 558C245 500.01 292.01 453 350 453C407.99 453 455 500.01 455 558C455 615.99 407.99 663 350 663V659C405.781 659 451 613.781 451 558Z" fill="#E1BA54"/>
<path d="M451 453C451 397.219 405.781 352 350 352C294.219 352 249 397.219 249 453C249 508.781 294.219 554 350 554V558C292.01 558 245 510.99 245 453C245 395.01 292.01 348 350 348C407.99 348 455 395.01 455 453C455 510.99 407.99 558 350 558V554C405.781 554 451 508.781 451 453Z" fill="#E1BA54"/>
<path d="M451 349C451 293.219 405.781 248 350 248C294.219 248 249 293.219 249 349C249 404.781 294.219 450 350 450V454C292.01 454 245 406.99 245 349C245 291.01 292.01 244 350 244C407.99 244 455 291.01 455 349C455 406.99 407.99 454 350 454V450C405.781 450 451 404.781 451 349Z" fill="#E1BA54"/>
<path d="M451 244C451 188.219 405.781 143 350 143C294.219 143 249 188.219 249 244C249 299.781 294.219 345 350 345V349C292.01 349 245 301.99 245 244C245 186.01 292.01 139 350 139C407.99 139 455 186.01 455 244C455 301.99 407.99 349 350 349V345C405.781 345 451 299.781 451 244Z" fill="#E1BA54"/>
<path d="M350.051 557C368.809 557.009 387.222 562.043 403.375 571.578C419.528 581.113 432.833 594.802 441.904 611.22L439.147 612.743C430.348 596.818 417.442 583.54 401.773 574.291C386.594 565.331 369.358 560.468 351.754 560.165L350.049 560.15C331.854 560.142 313.989 565.007 298.312 574.24C282.634 583.474 269.715 596.74 260.9 612.657L258.145 611.131C267.232 594.721 280.55 581.046 296.713 571.526C312.875 562.007 331.293 556.991 350.051 557Z" fill="#E1BA54"/>
<path d="M257.13 86.1328C264.314 98.153 269.021 111.489 270.974 125.355C272.927 139.222 272.086 153.34 268.502 166.877C264.917 180.414 258.661 193.097 250.102 204.18C241.542 215.263 230.852 224.522 218.661 231.412C206.47 238.302 193.023 242.683 179.113 244.299C165.203 245.914 151.111 244.732 137.665 240.819C124.219 236.907 111.692 230.345 100.82 221.519C89.9485 212.692 80.952 201.78 74.3604 189.425L77.1396 187.942C83.5335 199.927 92.2601 210.511 102.806 219.072C113.351 227.634 125.503 233.999 138.545 237.794C151.587 241.589 165.257 242.737 178.75 241.17C192.243 239.603 205.286 235.353 217.111 228.67C228.937 221.987 239.306 213.005 247.608 202.255C255.911 191.504 261.98 179.201 265.457 166.07C268.934 152.939 269.749 139.245 267.854 125.795C265.96 112.344 261.394 99.4086 254.426 87.749L257.13 86.1328Z" fill="#E1BA54"/>
<path d="M257.938 87.4912C248.832 103.265 235.781 116.4 220.064 125.604C204.348 134.809 186.507 139.768 168.295 139.992L168.257 136.842C185.922 136.624 203.227 131.815 218.472 122.887C233.716 113.958 246.377 101.218 255.209 85.917L257.938 87.4912Z" fill="#E1BA54"/>
<path d="M268 349C268 293.219 222.781 248 167 248C111.219 248 66 293.219 66 349C66 404.781 111.219 450 167 450V454C109.01 454 62 406.99 62 349C62 291.01 109.01 244 167 244C224.99 244 272 291.01 272 349C272 406.99 224.99 454 167 454V450C222.781 450 268 404.781 268 349Z" fill="#E1BA54"/>
<path d="M140.599 456.914C167.408 449.382 196.112 452.808 220.396 466.438C244.679 480.069 262.553 502.789 270.086 529.599C277.618 556.408 274.192 585.112 260.562 609.396L257.814 607.854C271.036 584.299 274.36 556.456 267.054 530.451C259.747 504.446 242.409 482.408 218.854 469.186C195.299 455.964 167.456 452.64 141.451 459.946C115.446 467.253 93.4076 484.591 80.1855 508.146L77.4385 506.604C91.0695 482.321 113.789 464.447 140.599 456.914Z" fill="#E1BA54"/>
<path d="M169.864 557.017C188.199 557.342 206.129 562.464 221.869 571.872C237.61 581.28 250.612 594.646 259.582 610.641L256.835 612.182C248.134 596.667 235.522 583.702 220.254 574.576C204.986 565.45 187.593 560.482 169.808 560.166L169.864 557.017Z" fill="#E1BA54"/>
<path d="M78.6431 396.862C105.654 396.559 131.438 385.539 150.323 366.225C169.208 346.912 179.648 320.887 179.345 293.876C179.042 266.866 168.021 241.081 148.707 222.196C129.394 203.311 103.369 192.872 76.3585 193.175L76.323 190.025C104.169 189.713 130.999 200.475 150.91 219.944C170.82 239.413 182.182 265.995 182.494 293.841C182.806 321.687 172.045 348.516 152.576 368.427C133.107 388.338 106.525 399.699 78.6786 400.012L78.6431 396.862Z" fill="#E1BA54"/>
<path d="M75.9174 396.856C89.4712 397.067 102.931 394.57 115.507 389.512C128.083 384.454 139.523 376.935 149.156 367.399C158.789 357.862 166.422 346.498 171.607 333.974C176.791 321.449 179.423 308.015 179.349 294.46C179.275 280.905 176.495 267.501 171.174 255.034C165.852 242.567 158.095 231.287 148.358 221.856C138.621 212.426 127.099 205.034 114.468 200.114C101.837 195.194 88.351 192.845 74.8005 193.205L74.7164 190.055C88.6861 189.685 102.59 192.107 115.612 197.179C128.633 202.251 140.512 209.872 150.55 219.594C160.588 229.316 168.585 240.944 174.071 253.797C179.557 266.649 182.423 280.468 182.499 294.442C182.576 308.416 179.862 322.266 174.518 335.178C169.173 348.09 161.304 359.805 151.373 369.637C141.442 379.469 129.648 387.219 116.682 392.434C103.717 397.649 89.8414 400.223 75.8685 400.006L75.9174 396.856Z" fill="#E1BA54"/>
<path d="M208 103.05C159.693 130.94 143.141 192.711 171.032 241.018C198.922 289.326 260.693 305.877 309 277.987C357.308 250.097 373.859 188.326 345.969 140.018L349.433 138.018C378.428 188.239 361.221 252.456 311 281.451C260.78 310.446 196.563 293.239 167.568 243.018C138.573 192.798 155.78 128.581 206 99.5857C256.221 70.5908 320.438 87.7977 349.433 138.018L345.969 140.018C318.079 91.7108 256.308 75.1595 208 103.05Z" fill="#E1BA54"/>
<path d="M356.171 149.904C347.781 138.961 341.629 126.473 338.066 113.153C334.503 99.8323 333.598 85.9403 335.404 72.2702C337.209 58.6001 341.69 45.4194 348.589 33.4808L351.316 35.0571C344.624 46.6374 340.278 59.4224 338.526 72.6822C336.775 85.9422 337.653 99.4174 341.11 112.338C344.566 125.259 350.533 137.373 358.671 147.987C366.808 158.602 376.958 167.51 388.538 174.202C400.119 180.894 412.904 185.24 426.163 186.992C439.423 188.743 452.899 187.865 465.819 184.408C478.74 180.952 490.854 174.985 501.468 166.847C512.083 158.71 520.991 148.56 527.683 136.98L530.41 138.556C523.511 150.494 514.328 160.957 503.385 169.347C492.442 177.736 479.954 183.889 466.634 187.452C453.313 191.015 439.422 191.919 425.751 190.114C412.081 188.309 398.901 183.828 386.962 176.929C375.023 170.029 364.56 160.847 356.171 149.904Z" fill="#E1BA54"/>
<path d="M116.5 366.033C68.1929 393.923 51.6415 455.694 79.5319 504.001C107.422 552.309 169.193 568.86 217.5 540.97C265.808 513.079 282.359 451.309 254.469 403.001L257.933 401.001C286.928 451.222 269.721 515.439 219.5 544.434C169.28 573.429 105.063 556.222 76.0678 506.001C47.0729 455.78 64.2798 391.563 114.5 362.568C164.721 333.573 228.938 350.78 257.933 401.001L254.469 403.001C226.579 354.694 164.808 338.142 116.5 366.033Z" fill="#E1BA54"/>
<path d="M299.5 261.532C251.193 289.423 234.641 351.193 262.532 399.501C290.422 447.809 352.193 464.36 400.5 436.47C448.808 408.579 465.359 346.809 437.469 298.501L440.933 296.501C469.928 346.722 452.721 410.939 402.5 439.934C352.28 468.929 288.063 451.722 259.068 401.501C230.073 351.28 247.28 287.063 297.5 258.068C347.721 229.073 411.938 246.28 440.933 296.501L437.469 298.501C409.579 250.193 347.808 233.642 299.5 261.532Z" fill="#E1BA54"/>
<path d="M482.499 156.033C434.192 183.923 417.641 245.694 445.531 294.001C473.421 342.309 535.192 358.86 583.499 330.97C631.807 303.079 648.358 241.309 620.468 193.001L623.932 191.001C652.927 241.222 635.72 305.439 585.499 334.434C535.279 363.429 471.062 346.222 442.067 296.001C413.072 245.78 430.279 181.563 480.499 152.568C530.72 123.574 594.937 140.78 623.932 191.001L620.468 193.001C592.578 144.694 530.807 128.142 482.499 156.033Z" fill="#E1BA54"/>
<path d="M169.41 559.757C178.582 543.76 191.805 530.461 207.749 521.196C223.692 511.932 241.795 507.031 260.235 506.984C278.675 506.937 296.802 511.748 312.793 520.931C328.783 530.114 342.073 543.347 351.326 559.298L348.6 560.878C339.625 545.406 326.734 532.57 311.224 523.662C295.713 514.755 278.13 510.089 260.243 510.134C242.357 510.179 224.797 514.934 209.331 523.92C193.866 532.907 181.04 545.807 172.143 561.325L169.41 559.757Z" fill="#E1BA54"/>
<path d="M542.501 507.484C542.501 451.703 497.282 406.484 441.501 406.484C385.72 406.484 340.501 451.703 340.501 507.484C340.501 563.264 385.72 608.484 441.501 608.484V612.484C383.511 612.484 336.501 565.474 336.501 507.484C336.501 449.494 383.511 402.484 441.501 402.484C499.491 402.484 546.501 449.494 546.501 507.484C546.501 565.474 499.491 612.484 441.501 612.484V608.484C497.282 608.484 542.501 563.264 542.501 507.484Z" fill="#E1BA54"/>
<path d="M621.499 404.634C603.5 404.634 585.822 409.403 570.266 418.457L568.815 419.317C553.909 428.327 541.553 441.015 532.94 456.176C524.05 471.826 519.466 489.552 519.654 507.55C519.842 525.548 524.797 543.174 534.013 558.635L531.308 560.248C521.807 544.31 516.699 526.138 516.505 507.583C516.31 489.028 521.036 470.753 530.202 454.619C539.367 438.485 552.644 425.068 568.681 415.734C584.719 406.401 602.943 401.483 621.499 401.483V404.634Z" fill="#E1BA54"/>
<path d="M623.602 509.632C606.108 509.614 588.904 514.103 573.649 522.665C558.393 531.227 545.6 543.574 536.502 558.516L533.812 556.878C543.19 541.474 556.379 528.745 572.107 519.918C587.834 511.091 605.57 506.464 623.605 506.482L623.602 509.632Z" fill="#E1BA54"/>
<path d="M76.1799 401.509C94.9089 401.097 113.407 405.703 129.756 414.85C146.105 423.996 159.709 437.35 169.157 453.527C178.606 469.703 183.554 488.113 183.489 506.847C183.425 525.581 178.349 543.956 168.789 560.067L166.08 558.459C175.354 542.832 180.277 525.008 180.34 506.836C180.403 488.665 175.603 470.807 166.438 455.115C157.273 439.424 144.076 426.471 128.218 417.599C112.359 408.727 94.4164 404.259 76.2492 404.658L76.1799 401.509Z" fill="#E1BA54"/>
<path d="M168.417 138.994C159.201 154.953 145.945 168.205 129.985 177.419C114.024 186.633 95.9197 191.483 77.4906 191.483V188.333C95.3669 188.333 112.929 183.629 128.411 174.691C143.892 165.754 156.749 152.899 165.689 137.419L168.417 138.994Z" fill="#E1BA54"/>
<path d="M534.505 138.786C543.419 154.075 556.163 166.776 571.481 175.64C586.799 184.503 604.163 189.222 621.86 189.331L621.841 192.482C603.596 192.369 585.696 187.504 569.904 178.366C554.112 169.229 540.973 156.134 531.783 140.373L534.505 138.786Z" fill="#E1BA54"/>
<path d="M517.5 402.984C517.5 375.571 528.219 349.263 547.337 329.665L548.254 328.738C567.945 309.046 594.652 297.984 622.5 297.984V301.134C595.488 301.134 569.582 311.865 550.481 330.965L549.592 331.866C531.048 350.876 520.65 376.394 520.65 402.984L520.658 404.249C520.988 430.804 531.679 456.2 550.481 475.002C569.582 494.103 595.488 504.833 622.5 504.833V507.984C594.652 507.984 567.945 496.921 548.254 477.23C528.87 457.846 517.847 431.665 517.508 404.288L517.5 402.984Z" fill="#E1BA54"/>
<path d="M77.3059 292.368C95.1679 292.402 112.725 287.738 128.215 278.844C143.705 269.95 156.584 257.139 165.559 241.696C174.534 226.252 179.291 208.72 179.35 190.858C179.41 172.996 174.771 155.432 165.899 139.929L168.633 138.366C177.779 154.348 182.562 172.454 182.5 190.869C182.441 208.708 177.837 226.227 169.137 241.779L168.283 243.278C159.03 259.199 145.753 272.407 129.783 281.576C113.814 290.745 95.7141 295.553 77.2999 295.517L77.3059 292.368Z" fill="#E1BA54"/>
<path d="M312 177.95C288.26 191.657 260.117 195.527 233.586 188.77L232.324 188.44C205.425 181.232 182.491 163.634 168.567 139.518L171.296 137.942C184.802 161.336 207.048 178.406 233.139 185.397L234.364 185.717C260.099 192.272 287.397 188.517 310.425 175.222L311.517 174.582C334.349 161.02 350.997 139.062 357.879 113.378C364.871 87.2864 361.211 59.4862 347.704 36.0929L350.433 34.5177C364.357 58.6345 368.13 87.2948 360.922 114.194C353.715 141.092 336.117 164.026 312 177.95Z" fill="#E1BA54"/>
<path d="M75.2495 506.048C84.8387 490.127 89.8882 471.884 89.8513 453.298C89.8144 434.712 84.6918 416.489 75.0392 400.606L77.7316 398.97C87.6826 415.345 92.9634 434.13 93.0015 453.292C93.0396 472.453 87.8332 491.26 77.9473 507.674L75.2495 506.048Z" fill="#E1BA54"/>
<path d="M299.5 157.032C251.192 184.922 234.641 246.693 262.531 295C290.422 343.308 352.192 359.859 400.5 331.969C448.808 304.079 465.359 242.308 437.469 194L440.933 192C469.928 242.221 452.721 306.438 402.5 335.433C352.279 364.428 288.062 347.221 259.067 297C230.072 246.78 247.279 182.563 297.5 153.568C347.721 124.573 411.938 141.78 440.933 192L437.469 194C409.578 145.693 347.808 129.141 299.5 157.032Z" fill="#E1BA54"/>
<path d="M79.1812 506.983C97.6104 506.927 115.73 511.722 131.719 520.887C147.708 530.052 161.002 543.265 170.267 559.196L167.545 560.78C158.558 545.327 145.661 532.511 130.152 523.621C114.643 514.731 97.0676 510.079 79.1913 510.133L79.1812 506.983Z" fill="#E1BA54"/>
<path d="M207.001 420.014C158.694 447.905 142.142 509.675 170.033 557.983C197.923 606.291 259.694 622.842 308.001 594.952C356.309 567.061 372.86 505.29 344.97 456.983L348.434 454.983C377.429 505.204 360.222 569.421 310.001 598.416C259.78 627.411 195.563 610.204 166.568 559.983C137.573 509.762 154.78 445.545 205.001 416.55C255.222 387.555 319.439 404.762 348.434 454.983L344.97 456.983C317.079 408.675 255.309 392.124 207.001 420.014Z" fill="#E1BA54"/>
<path d="M392 314.514C343.693 342.405 327.141 404.175 355.032 452.483C382.922 500.791 444.693 517.342 493 489.452C541.308 461.561 557.859 399.791 529.969 351.483L533.433 349.483C562.428 399.704 545.221 463.921 495 492.916C444.779 521.911 380.562 504.704 351.567 454.483C322.572 404.262 339.779 340.045 390 311.05C440.221 282.055 504.438 299.262 533.433 349.483L529.969 351.483C502.078 303.175 440.308 286.624 392 314.514Z" fill="#E1BA54"/>
<path d="M391 207.514C342.693 235.405 326.141 297.175 354.032 345.483C381.922 393.791 443.693 410.342 492 382.452C540.308 354.561 556.859 292.791 528.969 244.483L532.433 242.483C561.428 292.704 544.221 356.921 494 385.916C443.78 414.911 379.563 397.704 350.568 347.483C321.573 297.262 338.78 233.045 389 204.05C439.221 175.055 503.438 192.262 532.433 242.483L528.969 244.483C501.079 196.175 439.308 179.624 391 207.514Z" fill="#E1BA54"/>
<path d="M208 314.514C159.693 342.405 143.141 404.175 171.032 452.483C198.922 500.791 260.693 517.342 309 489.452C357.308 461.561 373.859 399.791 345.969 351.483L349.433 349.483C378.428 399.704 361.221 463.921 311 492.916C260.78 521.911 196.563 504.704 167.568 454.483C138.573 404.262 155.78 340.045 206 311.05C256.221 282.055 320.438 299.262 349.433 349.483L345.969 351.483C318.079 303.175 256.308 286.624 208 314.514Z" fill="#E1BA54"/>
<path d="M206 207.514C157.693 235.405 141.141 297.175 169.032 345.483C196.922 393.791 258.693 410.342 307 382.452C355.308 354.561 371.859 292.791 343.969 244.483L347.433 242.483C376.428 292.704 359.221 356.921 309 385.916C258.78 414.911 194.563 397.704 165.568 347.483C136.573 297.262 153.78 233.045 204 204.05C254.221 175.055 318.438 192.262 347.433 242.483L343.969 244.483C316.079 196.175 254.308 179.624 206 207.514Z" fill="#E1BA54"/>
<path d="M492 103.049C443.692 75.1583 381.922 91.7097 354.031 140.017C326.141 188.325 342.692 250.095 391 277.986C439.307 305.876 501.078 289.325 528.969 241.017L532.433 243.017C503.438 293.238 439.221 310.445 389 281.45C338.779 252.455 321.572 188.238 350.567 138.017C379.562 87.7965 443.779 70.5897 494 99.5846C544.221 128.58 561.428 192.797 532.433 243.017L528.969 241.017C556.859 192.71 540.307 130.939 492 103.049Z" fill="#E1BA54"/>
<path d="M517.505 293.983C517.779 266.137 529.104 239.539 548.989 220.042C568.873 200.547 595.688 189.748 623.534 190.023L623.504 193.173C596.493 192.906 570.482 203.381 551.194 222.292C531.906 241.203 520.921 267.002 520.655 294.013C520.389 321.024 530.863 347.035 549.774 366.323C568.686 385.611 594.484 396.596 621.495 396.862L621.465 400.012C593.619 399.738 567.021 388.412 547.525 368.528C528.029 348.644 517.23 321.829 517.505 293.983Z" fill="#E1BA54"/>
<path d="M217.501 156.031C169.193 128.14 107.423 144.692 79.5323 192.999C51.642 241.307 68.1933 303.078 116.501 330.968C164.808 358.858 226.579 342.307 254.469 293.999L257.934 295.999C228.939 346.22 164.722 363.427 114.501 334.432C64.2802 305.437 47.0733 241.22 76.0682 190.999C105.063 140.779 169.28 123.572 219.501 152.567C269.722 181.562 286.929 245.779 257.934 295.999L254.469 293.999C282.36 245.692 265.808 183.921 217.501 156.031Z" fill="#E1BA54"/>
<path d="M400.5 261.531C352.193 233.64 290.422 250.192 262.532 298.499C234.641 346.807 251.193 408.578 299.5 436.468C347.808 464.358 409.578 447.807 437.469 399.499L440.933 401.499C411.938 451.72 347.721 468.927 297.5 439.932C247.28 410.937 230.073 346.72 259.068 296.499C288.063 246.279 352.28 229.072 402.5 258.067C452.721 287.062 469.928 351.279 440.933 401.499L437.469 399.499C465.359 351.192 448.808 289.421 400.5 261.531Z" fill="#E1BA54"/>
<path d="M582.5 367.031C534.192 339.14 472.422 355.692 444.531 403.999C416.641 452.307 433.192 514.078 481.5 541.968C529.807 569.858 591.578 553.307 619.469 504.999L622.933 506.999C593.938 557.22 529.721 574.427 479.5 545.432C429.279 516.437 412.072 452.22 441.067 401.999C470.062 351.779 534.279 334.572 584.5 363.567C634.721 392.562 651.928 456.779 622.933 506.999L619.469 504.999C647.359 456.692 630.808 394.921 582.5 367.031Z" fill="#E1BA54"/>
<path d="M624.856 406.092C616.771 421.465 612.752 438.651 613.181 456.016C613.61 473.38 618.472 490.347 627.307 505.302L624.595 506.904C615.487 491.486 610.474 473.995 610.031 456.093C609.589 438.191 613.733 420.474 622.068 404.625L624.856 406.092Z" fill="#E1BA54"/>
<path d="M624.909 298.377C616.204 313.378 611.473 330.353 611.165 347.695C610.858 365.036 614.984 382.168 623.152 397.468L620.373 398.951C611.953 383.178 607.699 365.516 608.016 347.639C608.333 329.762 613.21 312.261 622.184 296.796L624.909 298.377Z" fill="#E1BA54"/>
<path d="M77.8269 298.558C86.4293 314.063 90.9654 331.495 91.0115 349.226C91.0576 366.958 86.6119 384.412 78.0901 399.962L75.3283 398.449C83.5945 383.366 87.9064 366.434 87.8618 349.234C87.817 332.035 83.4173 315.126 75.0729 300.086L77.8269 298.558Z" fill="#E1BA54"/>
<path d="M625.274 189.961L627.966 191.598C618.774 206.72 613.681 223.976 613.188 241.666C612.696 259.356 616.822 276.869 625.158 292.479L622.38 293.963C613.786 277.87 609.532 259.815 610.04 241.578C610.548 223.341 615.798 205.551 625.274 189.961Z" fill="#E1BA54"/>
<path d="M76.9495 188.687C87.066 204.808 92.6115 223.375 92.9914 242.403C93.3712 261.432 88.5708 280.206 79.1057 296.718L76.3734 295.151C85.5545 279.135 90.2098 260.924 89.8414 242.467C89.473 224.009 84.0949 205.999 74.2821 190.361L76.9495 188.687Z" fill="#E1BA54"/>
<path d="M75.4462 296.988C103.292 296.708 130.11 307.501 149.998 326.993C169.886 346.486 181.216 373.081 181.496 400.927C181.776 428.773 170.983 455.59 151.49 475.479C131.998 495.367 105.403 506.697 77.5566 506.977L77.5256 503.827C104.536 503.556 130.333 492.565 149.241 473.273C168.148 453.982 178.618 427.969 178.346 400.959C178.075 373.948 167.084 348.15 147.792 329.243C128.501 310.335 102.489 299.866 75.4781 300.137L75.4462 296.988Z" fill="#E1BA54"/>
<path d="M338.796 584.07C342.258 570.723 348.315 558.188 356.621 547.182C364.927 536.176 375.32 526.913 387.206 519.923C399.091 512.933 412.237 508.353 425.893 506.443C439.549 504.534 453.448 505.333 466.795 508.795C480.142 512.257 492.676 518.314 503.683 526.62C514.689 534.926 523.952 545.319 530.942 557.205L528.226 558.801C521.446 547.272 512.461 537.191 501.785 529.134C491.109 521.078 478.951 515.202 466.004 511.844C453.057 508.486 439.576 507.711 426.329 509.563C413.083 511.415 400.331 515.858 388.802 522.639C377.273 529.419 367.192 538.403 359.135 549.079C351.078 559.755 345.203 571.914 341.845 584.861C338.487 597.807 337.711 611.289 339.563 624.535C341.415 637.781 345.859 650.534 352.639 662.063L349.924 663.659C342.934 651.773 338.353 638.627 336.444 624.971C334.535 611.315 335.334 597.417 338.796 584.07Z" fill="#E1BA54"/>
<path d="M693 350C693 160.566 539.434 7 350 7C160.566 7 7 160.566 7 350C7 539.434 160.566 693 350 693V700C156.7 700 0 543.3 0 350C0 156.7 156.7 0 350 0C543.3 0 700 156.7 700 350C700 543.3 543.3 700 350 700V693C539.434 693 693 539.434 693 350Z" fill="#E1BA54"/>
<path d="M680 349C680 166.746 532.254 19 350 19C167.746 19 19.9998 166.746 19.9998 349C19.9998 531.254 167.746 679 350 679V684C164.984 684 14.9998 534.015 14.9998 349C14.9998 163.985 164.984 14 350 14C535.015 14 685 163.985 685 349C685 534.015 535.015 684 350 684V679C532.254 679 680 531.254 680 349Z" fill="#E1BA54"/>
<path d="M665 348C665 174.03 523.97 33 350 33C176.03 33 35 174.03 35 348C35 521.97 176.03 663 350 663V668C173.269 668 30 524.731 30 348C30 171.269 173.269 28 350 28C526.731 28 670 171.269 670 348C670 524.731 526.731 668 350 668V663C523.97 663 665 521.97 665 348Z" fill="#E1BA54"/>
<path d="M463.341 294.432C455.988 286.886 448.696 278.584 458.264 245.002C424.632 254.395 417.192 248.008 409.684 240.616C379.182 204.231 358.292 229.631 356.391 232.309C354.268 235.302 352.222 240.078 352.124 243.456L352.009 247.397L350.625 247.152L350.511 243.211C350.413 239.833 348.366 235.057 346.243 232.065C344.343 229.386 323.453 203.986 292.951 240.372C285.443 247.763 278.004 254.15 244.372 244.757C253.94 278.34 246.647 286.641 239.294 294.187C203.068 324.878 228.576 345.636 231.264 347.522C234.268 349.63 239.054 351.652 242.433 351.732L246.375 351.826V352.039L242.433 352.133C239.054 352.213 234.268 354.235 231.264 356.343C228.576 358.229 203.068 378.987 239.294 409.678C246.647 417.224 253.94 425.526 244.372 459.108C278.004 449.715 285.443 456.102 292.951 463.493C323.453 499.878 344.343 474.479 346.243 471.8C348.366 468.808 350.017 461.86 350.115 458.482H350.678L350.23 460.654C350.328 464.032 352.375 468.808 354.498 471.8C356.398 474.479 377.289 499.879 407.791 463.493C415.299 456.102 422.738 449.715 456.37 459.108C446.801 425.526 454.094 417.224 461.447 409.678C497.673 378.987 472.166 358.229 469.477 356.343C466.474 354.235 461.687 352.213 458.309 352.133L454.367 352.039L456.227 351.977H460.203C463.581 351.897 468.368 349.875 471.371 347.767C474.06 345.881 499.567 325.123 463.341 294.432Z" fill="white"/>
<path d="M290.474 238.064C306.198 219.37 320.202 215.769 331.08 218.276C341.535 220.685 347.852 228.492 348.998 230.109C349.848 231.307 350.662 232.716 351.375 234.198C352.059 232.806 352.83 231.486 353.633 230.354C354.78 228.738 361.097 220.929 371.552 218.52C382.431 216.014 396.433 219.616 412.156 238.308C415.763 241.854 418.895 244.646 424.814 245.785C431.04 246.982 440.696 246.399 457.353 241.746L463.166 240.122L461.513 245.928C456.789 262.508 456.384 272.349 457.76 278.772C459.084 284.948 462.115 288.326 465.66 291.97C484.272 307.79 487.8 321.812 485.237 332.677C482.774 343.12 474.933 349.395 473.311 350.533C472.285 351.253 471.105 351.946 469.859 352.572C470.406 352.898 470.93 353.234 471.418 353.576C473.04 354.715 480.88 360.991 483.343 371.433C485.906 382.298 482.377 396.318 463.766 412.138C460.22 415.782 457.189 419.161 455.866 425.337C454.49 431.761 454.895 441.602 459.619 458.182L461.272 463.986L455.459 462.364C438.801 457.711 429.145 457.128 422.92 458.325C417.001 459.463 413.87 462.255 410.263 465.801C394.539 484.494 380.537 488.095 369.659 485.589C359.204 483.18 352.888 475.372 351.741 473.756C351.245 473.057 350.762 472.286 350.303 471.472C349.907 472.308 349.473 473.086 348.998 473.756C347.852 475.372 341.535 483.18 331.08 485.589C320.202 488.095 306.199 484.494 290.474 465.799C286.868 462.254 283.737 459.463 277.818 458.325C271.593 457.128 261.938 457.711 245.28 462.364L239.466 463.986L241.121 458.182C245.845 441.602 246.249 431.761 244.872 425.337C243.549 419.161 240.519 415.782 236.972 412.138C218.362 396.318 214.832 382.298 217.395 371.433C219.858 360.99 227.7 354.715 229.322 353.576C230.136 353.005 231.048 352.45 232.013 351.932C231.048 351.413 230.136 350.861 229.322 350.289C227.7 349.151 219.859 342.875 217.395 332.432C214.833 321.567 218.361 307.545 236.972 291.724C240.518 288.081 243.549 284.703 244.872 278.527C246.249 272.104 245.845 262.263 241.121 245.682L239.466 239.878L245.28 241.502C261.938 246.154 271.593 246.736 277.818 245.539C283.737 244.401 286.868 241.609 290.474 238.064ZM329.562 224.862C321.921 223.102 310.27 224.97 295.539 242.543L295.436 242.667L295.32 242.78C291.463 246.578 287.124 250.634 279.095 252.178C272.221 253.5 262.925 252.933 249.142 249.512C252.601 263.366 252.999 272.863 251.482 279.944C249.725 288.143 245.477 292.684 241.714 296.546L241.602 296.662L241.478 296.766C223.983 311.588 222.174 323.249 223.974 330.881C225.88 338.961 232.137 344.007 233.204 344.756C234.46 345.637 236.163 346.547 237.936 347.24C239.744 347.946 241.372 348.326 242.511 348.353L249.753 348.526V355.339L242.511 355.512C241.372 355.539 239.744 355.92 237.936 356.626C236.164 357.318 234.46 358.228 233.204 359.109C232.138 359.858 225.88 364.904 223.974 372.984C222.202 380.496 223.926 391.913 240.669 406.406L241.478 407.099L241.602 407.203L241.714 407.319C245.477 411.182 249.725 415.723 251.482 423.922C252.999 431.002 252.601 440.498 249.142 454.351C262.925 450.93 272.221 450.365 279.095 451.687C287.124 453.231 291.463 457.287 295.32 461.084L295.436 461.198L295.539 461.322C310.27 478.894 321.921 480.763 329.562 479.002C337.652 477.138 342.731 470.908 343.486 469.845C344.19 468.851 345.011 466.842 345.677 464.397C346.327 462.012 346.697 459.712 346.735 458.383L346.831 455.102H354.825L353.629 460.898C353.72 462.01 354.099 463.495 354.745 465.126C355.447 466.895 356.366 468.593 357.254 469.845C358.008 470.908 363.087 477.138 371.176 479.002C378.817 480.763 390.468 478.894 405.199 461.322L405.304 461.199L405.418 461.085C409.275 457.288 413.615 453.231 421.644 451.687C428.519 450.365 437.814 450.932 451.596 454.353C448.137 440.499 447.74 431.003 449.257 423.922C451.014 415.723 455.262 411.182 459.026 407.319L459.138 407.203L459.261 407.099C476.757 392.277 478.565 380.616 476.765 372.984C474.859 364.904 468.602 359.858 467.535 359.109C466.279 358.228 464.576 357.318 462.803 356.626C460.995 355.92 459.367 355.539 458.227 355.512L454.285 355.418L454.253 348.661L456.113 348.599L456.17 348.597H460.14C461.279 348.566 462.898 348.186 464.697 347.484C466.469 346.792 468.173 345.882 469.428 345.001C470.495 344.252 476.753 339.205 478.659 331.125C480.459 323.493 478.651 311.832 461.155 297.011L461.032 296.906L460.919 296.791C457.155 292.928 452.907 288.387 451.151 280.188C449.634 273.107 450.031 263.61 453.491 249.756C439.708 253.177 430.413 253.744 423.538 252.422C415.509 250.878 411.169 246.822 407.311 243.024L407.197 242.911L407.092 242.788C392.361 225.215 380.71 223.347 373.069 225.108C364.979 226.972 359.901 233.202 359.147 234.265C358.259 235.516 357.34 237.215 356.639 238.984C355.923 240.788 355.534 242.414 355.501 243.554L355.274 251.408L347.326 250L347.131 243.308C347.098 242.169 346.709 240.544 345.994 238.739C345.292 236.971 344.373 235.271 343.486 234.02C342.731 232.956 337.652 226.726 329.562 224.862Z" fill="#16DDEB"/>
<path d="M339.897 366.17H365.299V371.943H339.897V366.17Z" fill="#145189"/>
<path d="M454.882 352.586C454.882 295.035 408.228 248.381 350.677 248.381C293.126 248.381 246.472 295.035 246.472 352.586C246.472 410.137 293.126 456.792 350.677 456.792V461.298C290.638 461.298 241.966 412.626 241.966 352.586C241.966 292.547 290.638 243.875 350.677 243.875C410.717 243.875 459.389 292.547 459.389 352.586C459.389 412.626 410.717 461.298 350.677 461.298V456.792C408.228 456.792 454.882 410.137 454.882 352.586Z" fill="#16DDEB"/>
<path d="M386.692 319.214L390.672 317.1L352.369 245.001L348.39 247.115L386.692 319.214Z" fill="#16DDEB"/>
<path d="M316.12 317.895L312.144 315.775L350.314 244.206L354.29 246.327L316.12 317.895Z" fill="#16DDEB"/>
<path d="M316.18 317.7L314.066 313.721L241.967 352.023L244.081 356.003L316.18 317.7Z" fill="#16DDEB"/>
<path d="M315.131 386.65C316.227 387.238 316.639 388.604 316.051 389.7C315.464 390.797 314.099 391.209 313.002 390.622L243.086 353.146L245.216 349.175L315.131 386.65Z" fill="#16DDEB"/>
<path d="M315.79 387.085L311.811 389.199L350.113 461.298L354.093 459.184L315.79 387.085Z" fill="#16DDEB"/>
<path d="M385.577 387.059L389.542 389.199L351.24 460.171L347.274 458.031L385.577 387.059Z" fill="#16DDEB"/>
<path d="M385.176 387.473L387.29 391.452L459.389 353.15L457.274 349.17L385.176 387.473Z" fill="#16DDEB"/>
<path d="M386.3 318.825L388.417 314.847L458.263 352.023L456.146 356.001L386.3 318.825Z" fill="#16DDEB"/>
<path d="M425.297 278.566V427.733H276.13V278.566H425.297ZM285.17 418.693H416.256V287.607H285.17V418.693Z" fill="#16DDEB"/>
<path d="M303.629 361.864C303.629 361.864 307.603 352.734 312.472 349.142C315.928 346.593 321.424 344.809 321.424 344.809C321.424 344.809 330.284 343.108 334.702 344.809C338.878 346.417 341.245 348.371 343.361 352.314C344.373 354.199 344.697 355.408 345.093 357.51C345.635 360.39 345.094 365.015 345.094 365.015L341.63 365.015C341.63 365.015 337.2 358.587 332.97 356.355C327.174 353.297 322.606 353.694 316.228 355.2C310.811 356.48 303.629 361.864 303.629 361.864Z" fill="#145189"/>
<path d="M302.572 361.403L303.63 361.864C302.572 361.403 302.572 361.403 302.572 361.403L302.572 361.402L302.573 361.399C302.574 361.398 302.574 361.396 302.575 361.394C302.577 361.389 302.581 361.381 302.585 361.371C302.594 361.352 302.606 361.325 302.622 361.289C302.654 361.218 302.701 361.113 302.762 360.981C302.884 360.716 303.062 360.337 303.291 359.871C303.749 358.941 304.412 357.661 305.23 356.265C306.844 353.514 309.153 350.157 311.788 348.213C313.626 346.857 315.963 345.732 317.796 344.956C318.72 344.564 319.534 344.255 320.118 344.043C320.41 343.937 320.646 343.854 320.809 343.798C320.89 343.77 320.955 343.749 320.998 343.735C321.02 343.727 321.037 343.722 321.049 343.718C321.055 343.716 321.059 343.714 321.063 343.713L321.068 343.711L321.425 344.809C321.415 344.812 316.264 346.485 312.804 348.905L312.474 349.141C307.604 352.733 303.63 361.864 303.63 361.864C303.63 361.864 310.813 356.481 316.23 355.201L317.406 354.931C323.184 353.657 327.538 353.488 332.972 356.355L333.368 356.576C337.474 358.982 341.631 365.015 341.631 365.015L345.095 365.015C345.098 364.987 345.635 360.382 345.095 357.51C344.748 355.671 344.456 354.515 343.711 352.992L343.363 352.314C341.378 348.618 339.175 346.669 335.466 345.115L334.704 344.809C330.285 343.107 321.425 344.809 321.425 344.809L321.068 343.711L321.137 343.689L321.208 343.675L321.21 343.674C321.211 343.674 321.214 343.674 321.217 343.674C321.222 343.673 321.229 343.671 321.238 343.669C321.256 343.666 321.284 343.661 321.319 343.655C321.389 343.642 321.49 343.623 321.619 343.601C321.878 343.557 322.251 343.496 322.71 343.428C323.629 343.292 324.902 343.129 326.319 343.02C329.087 342.807 332.643 342.779 335.119 343.732C337.285 344.566 339.048 345.515 340.557 346.81C342.069 348.107 343.273 349.705 344.38 351.768C345.467 353.793 345.82 355.127 346.229 357.296C346.526 358.874 346.519 360.862 346.451 362.394C346.416 363.173 346.365 363.858 346.321 364.349C346.299 364.595 346.28 364.793 346.266 364.93C346.258 364.999 346.253 365.053 346.249 365.09L346.242 365.144C346.242 365.145 346.242 365.147 346.242 365.148L346.241 365.149L346.123 366.17L341.025 366.17L340.68 365.67C340.68 365.67 340.68 365.668 340.679 365.667C340.677 365.665 340.674 365.662 340.67 365.657C340.663 365.646 340.651 365.628 340.636 365.606C340.605 365.562 340.557 365.495 340.495 365.408C340.371 365.235 340.186 364.982 339.951 364.671C339.481 364.049 338.812 363.197 338.015 362.279C336.394 360.409 334.346 358.386 332.433 357.376C329.678 355.923 327.255 355.308 324.777 355.22C322.273 355.13 319.659 355.577 316.495 356.324C313.974 356.92 310.955 358.503 308.499 359.998C307.286 360.736 306.239 361.437 305.495 361.952C305.123 362.209 304.827 362.42 304.626 362.565C304.525 362.638 304.449 362.695 304.398 362.732C304.372 362.751 304.353 362.765 304.34 362.775C304.334 362.779 304.329 362.783 304.327 362.785C304.325 362.786 304.324 362.787 304.324 362.787L300.829 365.406L302.572 361.403Z" fill="white"/>
<path d="M329.576 371.146C329.576 371.146 325.673 372.543 324.38 374.61C323.51 376.002 323.155 377.012 323.226 378.651C323.288 380.076 323.507 380.988 324.38 382.115C326.196 384.46 328.979 383.859 331.885 383.27C335.072 382.625 336.655 381.084 338.813 378.651C340.225 377.06 341.7 374.033 341.7 374.033L344.586 374.033C344.586 374.033 345.163 374.033 344.586 376.342C344.009 378.651 342.226 380.931 339.968 383.27C337.492 385.834 335.853 387.364 332.463 388.466C328.818 389.65 326.689 389.62 322.649 389.043C320.714 388.475 319.474 388.009 318.03 386.734C316.21 385.126 315.923 383.38 315.721 380.961C315.529 378.67 315.688 377.156 316.875 375.188C318.297 372.831 320.022 371.967 322.649 371.146C325.231 370.34 329.576 371.146 329.576 371.146Z" fill="#145189"/>
<path d="M345.921 374.042C346.065 374.621 346.002 375.433 345.704 376.622C345.047 379.254 343.062 381.725 340.796 384.072C338.285 386.673 336.485 388.373 332.818 389.564C330.923 390.179 329.376 390.494 327.755 390.569C326.15 390.642 324.52 390.477 322.484 390.186L322.401 390.174L322.321 390.15C320.331 389.566 318.897 389.042 317.263 387.599C315.083 385.673 314.774 383.518 314.568 381.057C314.469 379.871 314.452 378.804 314.643 377.748C314.836 376.678 315.231 375.676 315.885 374.591C316.678 373.277 317.582 372.34 318.676 371.625C319.749 370.923 320.959 370.463 322.302 370.044C323.813 369.572 325.73 369.59 327.161 369.692C327.897 369.745 328.549 369.824 329.016 369.889C329.249 369.922 329.438 369.952 329.57 369.974C329.636 369.985 329.689 369.993 329.725 370C329.743 370.003 329.758 370.006 329.768 370.008C329.772 370.008 329.776 370.009 329.779 370.01C329.78 370.01 329.781 370.011 329.782 370.011L329.785 370.011L333.993 370.792L329.964 372.233L329.958 372.236C329.953 372.238 329.944 372.24 329.932 372.245C329.908 372.254 329.87 372.268 329.821 372.288C329.721 372.326 329.574 372.384 329.393 372.46C329.03 372.613 328.535 372.838 328.005 373.121C326.888 373.717 325.831 374.465 325.358 375.223C324.95 375.875 324.701 376.377 324.554 376.869C324.409 377.352 324.347 377.881 324.378 378.601C324.407 379.271 324.471 379.741 324.599 380.149C324.723 380.544 324.923 380.934 325.291 381.408C325.951 382.26 326.757 382.584 327.784 382.64C328.892 382.699 330.155 382.442 331.654 382.138C334.456 381.57 335.826 380.275 337.947 377.885C338.569 377.184 339.242 376.117 339.78 375.173C340.044 374.711 340.266 374.297 340.421 373.998C340.498 373.849 340.559 373.73 340.6 373.649C340.62 373.608 340.635 373.577 340.645 373.556C340.65 373.546 340.654 373.538 340.656 373.534C340.658 373.531 340.659 373.529 340.66 373.528L340.66 373.527L340.975 372.878L344.584 372.878L344.584 374.033L341.697 374.033C341.679 374.07 340.213 377.07 338.811 378.651C336.653 381.084 335.07 382.625 331.883 383.27C328.977 383.858 326.194 384.46 324.378 382.115L324.222 381.906C323.479 380.872 323.281 379.987 323.223 378.651L323.215 378.352C323.201 377.08 323.472 376.183 324.076 375.117L324.378 374.61C325.662 372.557 329.521 371.165 329.574 371.146C329.52 371.137 325.212 370.345 322.646 371.146C320.019 371.967 318.294 372.831 316.873 375.188C315.834 376.91 315.582 378.284 315.664 380.135L315.718 380.961C315.908 383.229 316.173 384.905 317.705 386.43L318.027 386.734C319.29 387.85 320.398 388.346 321.951 388.833L322.646 389.043C326.434 389.584 328.542 389.643 331.794 388.673L332.46 388.466C335.427 387.502 337.052 386.21 339.071 384.184L339.965 383.27C342.082 381.077 343.782 378.937 344.462 376.775L344.584 376.342C345.161 374.033 344.584 374.033 344.584 374.033C344.584 372.878 344.587 372.878 344.589 372.878L344.622 372.878C344.635 372.879 344.648 372.88 344.661 372.881C344.689 372.882 344.718 372.885 344.748 372.89C344.809 372.898 344.877 372.912 344.948 372.934C345.092 372.978 345.244 373.053 345.386 373.167C345.679 373.401 345.841 373.724 345.921 374.042Z" fill="white"/>
<path d="M354.908 382.631C355.486 384.258 358.151 392.221 356.875 397.319C355.832 401.488 351.444 406.581 351.444 406.581C351.431 406.567 347.054 401.482 346.013 397.319C344.737 392.221 347.402 384.258 347.98 382.631V374.252H354.908V382.631Z" fill="#145189"/>
<path d="M347.98 374.252V382.631C347.402 384.258 344.737 392.221 346.012 397.319C347.054 401.48 351.426 406.561 351.444 406.581C351.444 406.581 355.832 401.488 356.875 397.319C358.151 392.221 355.486 384.258 354.908 382.631V374.252H347.98ZM356.062 382.439C356.404 383.421 357.164 385.736 357.717 388.442C358.304 391.308 358.699 394.787 357.995 397.6C357.421 399.893 355.964 402.35 354.722 404.166C354.09 405.089 353.492 405.877 353.053 406.434C352.833 406.714 352.651 406.937 352.524 407.091C352.461 407.167 352.41 407.227 352.375 407.268C352.358 407.288 352.344 407.305 352.335 407.316C352.33 407.322 352.326 407.326 352.323 407.329C352.322 407.33 352.321 407.332 352.32 407.333L352.319 407.334L351.444 408.35L350.569 407.334C350.541 407.302 349.417 405.994 348.161 404.158C346.921 402.343 345.466 399.89 344.893 397.6C344.189 394.787 344.584 391.308 345.17 388.442C345.724 385.736 346.483 383.422 346.825 382.439V373.097H356.062V382.439Z" fill="white"/>
<path d="M373.639 371.146C373.639 371.146 377.541 372.543 378.834 374.61C379.705 376.002 380.06 377.012 379.989 378.651C379.927 380.076 379.708 380.988 378.834 382.115C377.018 384.46 374.236 383.859 371.329 383.27C368.143 382.625 366.56 381.084 364.402 378.651C362.99 377.06 361.515 374.033 361.515 374.033L358.629 374.033C358.629 374.033 358.051 374.033 358.629 376.342C359.206 378.651 360.989 380.931 363.247 383.27C365.723 385.834 367.362 387.364 370.752 388.466C374.397 389.65 376.526 389.62 380.566 389.043C382.501 388.475 383.741 388.009 385.185 386.734C387.004 385.126 387.292 383.38 387.494 380.961C387.686 378.67 387.527 377.156 386.339 375.188C384.918 372.831 383.193 371.967 380.566 371.146C377.984 370.34 373.639 371.146 373.639 371.146Z" fill="#145189"/>
<path d="M357.29 374.042C357.145 374.621 357.209 375.433 357.506 376.622C358.164 379.254 360.149 381.725 362.415 384.072C364.926 386.673 366.726 388.373 370.393 389.564C372.287 390.179 373.835 390.494 375.456 390.569C377.061 390.642 378.691 390.477 380.727 390.186L380.81 390.174L380.89 390.15C382.88 389.566 384.314 389.042 385.948 387.599C388.127 385.673 388.437 383.518 388.643 381.057C388.742 379.871 388.759 378.804 388.568 377.748C388.375 376.678 387.98 375.676 387.326 374.591C386.533 373.277 385.629 372.34 384.535 371.625C383.462 370.923 382.252 370.463 380.909 370.044C379.398 369.572 377.481 369.59 376.05 369.692C375.314 369.745 374.662 369.824 374.195 369.889C373.962 369.922 373.773 369.952 373.641 369.974C373.575 369.985 373.522 369.993 373.486 370C373.468 370.003 373.453 370.006 373.443 370.008C373.439 370.008 373.435 370.009 373.432 370.01L373.429 370.011L373.426 370.011L369.218 370.792L373.247 372.233L373.253 372.236C373.258 372.238 373.267 372.24 373.279 372.245C373.303 372.254 373.341 372.268 373.39 372.288C373.49 372.326 373.637 372.384 373.818 372.46C374.181 372.613 374.676 372.838 375.206 373.121C376.322 373.717 377.38 374.465 377.853 375.223C378.261 375.875 378.51 376.377 378.657 376.869C378.801 377.352 378.864 377.881 378.833 378.601C378.804 379.271 378.74 379.741 378.612 380.149C378.488 380.544 378.287 380.934 377.92 381.408C377.26 382.26 376.454 382.584 375.427 382.64C374.319 382.699 373.056 382.442 371.557 382.138C368.755 381.57 367.385 380.275 365.264 377.885C364.642 377.184 363.969 376.117 363.431 375.173C363.167 374.711 362.945 374.297 362.79 373.998C362.713 373.849 362.652 373.73 362.611 373.649C362.591 373.608 362.576 373.577 362.566 373.556C362.561 373.546 362.557 373.538 362.555 373.534C362.553 373.531 362.551 373.528 362.551 373.528L362.235 372.878L358.627 372.878L358.627 374.033L361.514 374.033C361.532 374.07 362.997 377.07 364.4 378.651C366.558 381.084 368.141 382.625 371.328 383.27C374.234 383.858 377.017 384.46 378.833 382.115L378.989 381.906C379.732 380.872 379.93 379.987 379.988 378.651L379.996 378.352C380.01 377.08 379.739 376.183 379.135 375.117L378.833 374.61C377.549 372.557 373.689 371.165 373.637 371.146C373.691 371.137 377.999 370.345 380.565 371.146C383.192 371.967 384.917 372.831 386.338 375.188C387.377 376.91 387.629 378.284 387.547 380.135L387.493 380.961C387.303 383.229 387.038 384.905 385.506 386.43L385.183 386.734C383.92 387.85 382.813 388.346 381.26 388.833L380.565 389.043C376.777 389.584 374.669 389.643 371.417 388.673L370.751 388.466C367.784 387.502 366.159 386.21 364.14 384.184L363.246 383.27C361.129 381.077 359.429 378.937 358.749 376.775L358.627 376.342C358.05 374.033 358.627 374.033 358.627 374.033C358.627 372.878 358.622 372.878 358.622 372.878L358.589 372.878C358.576 372.879 358.563 372.88 358.549 372.881C358.522 372.882 358.493 372.885 358.463 372.89C358.402 372.898 358.334 372.912 358.263 372.934C358.119 372.978 357.967 373.053 357.824 373.167C357.532 373.401 357.37 373.724 357.29 374.042Z" fill="white"/>
<path d="M399.496 361.759C399.496 361.759 395.522 352.629 390.653 349.038C387.197 346.488 381.701 344.705 381.701 344.705C381.701 344.705 372.841 343.003 368.423 344.705C364.247 346.313 361.88 348.267 359.764 352.21C358.752 354.094 358.428 355.304 358.032 357.406C357.49 360.286 358.031 364.911 358.031 364.911L361.495 364.911C361.495 364.911 365.925 358.483 370.155 356.251C375.951 353.192 380.519 353.589 386.897 355.096C392.314 356.376 399.496 361.759 399.496 361.759Z" fill="#145189"/>
<path d="M400.553 361.299L399.495 361.76C400.553 361.299 400.553 361.299 400.553 361.299L400.553 361.297L400.552 361.295C400.551 361.293 400.551 361.292 400.55 361.29C400.548 361.284 400.544 361.277 400.54 361.267C400.531 361.248 400.519 361.22 400.503 361.185C400.471 361.113 400.424 361.009 400.363 360.876C400.241 360.612 400.063 360.232 399.834 359.767C399.376 358.836 398.713 357.557 397.895 356.161C396.281 353.41 393.972 350.052 391.337 348.108C389.499 346.753 387.162 345.627 385.329 344.851C384.405 344.46 383.591 344.151 383.007 343.939C382.715 343.832 382.479 343.75 382.316 343.694C382.235 343.666 382.17 343.645 382.127 343.63C382.105 343.623 382.088 343.617 382.076 343.613C382.07 343.611 382.066 343.609 382.062 343.608L382.057 343.607L381.7 344.704C381.71 344.708 386.861 346.381 390.321 348.8L390.651 349.037C395.521 352.629 399.495 361.76 399.495 361.76C399.495 361.76 392.312 356.376 386.895 355.096L385.719 354.827C379.941 353.553 375.587 353.384 370.153 356.251L369.757 356.472C365.651 358.878 361.494 364.911 361.494 364.911L358.03 364.91C358.027 364.883 357.49 360.278 358.03 357.406C358.377 355.567 358.669 354.411 359.414 352.888L359.762 352.21C361.747 348.513 363.95 346.564 367.659 345.01L368.421 344.704C372.84 343.003 381.7 344.704 381.7 344.704L382.057 343.607L381.988 343.585L381.917 343.571L381.915 343.57C381.914 343.57 381.911 343.57 381.908 343.569C381.903 343.568 381.896 343.567 381.887 343.565C381.869 343.561 381.841 343.557 381.806 343.55C381.736 343.538 381.635 343.519 381.506 343.497C381.247 343.452 380.874 343.391 380.415 343.323C379.496 343.188 378.223 343.024 376.806 342.916C374.038 342.703 370.482 342.674 368.006 343.628C365.84 344.462 364.077 345.411 362.568 346.706C361.056 348.003 359.852 349.601 358.745 351.664C357.658 353.688 357.305 355.022 356.896 357.192C356.599 358.77 356.606 360.758 356.674 362.29C356.709 363.068 356.76 363.754 356.804 364.245C356.826 364.49 356.845 364.688 356.859 364.826C356.867 364.894 356.872 364.948 356.876 364.985L356.883 365.04C356.883 365.041 356.883 365.042 356.883 365.043L356.884 365.045L357.002 366.065L362.1 366.065L362.445 365.566C362.445 365.566 362.445 365.564 362.446 365.563C362.448 365.56 362.451 365.557 362.455 365.552C362.462 365.541 362.474 365.524 362.489 365.502C362.52 365.457 362.568 365.39 362.63 365.304C362.754 365.13 362.939 364.878 363.174 364.567C363.644 363.945 364.313 363.093 365.11 362.174C366.731 360.305 368.779 358.282 370.692 357.272C373.447 355.818 375.87 355.203 378.348 355.115C380.852 355.026 383.466 355.472 386.63 356.22C389.151 356.815 392.17 358.398 394.626 359.894C395.839 360.632 396.886 361.332 397.63 361.847C398.002 362.105 398.298 362.315 398.499 362.461C398.6 362.533 398.676 362.59 398.727 362.628C398.753 362.647 398.772 362.661 398.785 362.67C398.791 362.675 398.796 362.679 398.798 362.681C398.8 362.682 398.801 362.682 398.801 362.683L402.296 365.302L400.553 361.299Z" fill="white"/>
<path d="M351.817 295.445C351.835 295.458 358.839 300.629 362.023 305.083C364.027 307.886 365.261 309.528 366.25 312.828C367.622 317.406 366.869 320.327 366.25 325.065C365.354 331.926 360.7 341.884 360.682 341.923L355.486 353.255V365.015H347.981V352.766C346.418 349.239 344.672 345.21 343.363 341.923C340.77 335.41 338.126 332.013 337.199 325.065C336.566 320.328 335.984 317.397 337.385 312.828C338.395 309.534 339.608 307.886 341.612 305.083C344.8 300.624 351.817 295.445 351.817 295.445Z" fill="#145189"/>
<path d="M352.503 294.516C352.525 294.532 354.305 295.847 356.485 297.724C358.649 299.585 361.285 302.066 362.962 304.411C364.962 307.208 366.306 308.991 367.356 312.497C368.815 317.366 368 320.58 367.395 325.215C366.928 328.787 365.498 333.098 364.215 336.464C362.959 339.759 361.807 342.24 361.731 342.403L356.641 353.507V366.17H346.827V353.009C345.287 349.532 343.579 345.589 342.29 342.35C340.989 339.084 339.754 336.779 338.597 334.118C337.466 331.518 336.536 328.825 336.054 325.217C335.428 320.527 334.794 317.34 336.281 312.49C337.351 308.998 338.668 307.215 340.673 304.411C342.352 302.063 344.992 299.579 347.157 297.717C348.25 296.777 349.24 295.979 349.958 295.416C350.317 295.134 350.609 294.91 350.812 294.756C350.913 294.679 350.992 294.621 351.046 294.58C351.073 294.56 351.094 294.543 351.108 294.533C351.115 294.527 351.121 294.523 351.125 294.52C351.127 294.519 351.129 294.518 351.13 294.517H351.131V294.516H351.132L351.817 294.01L352.503 294.516ZM355.486 365.015V353.255L360.682 341.923C360.707 341.87 365.068 332.533 366.155 325.716L366.25 325.065C366.85 320.475 367.574 317.59 366.372 313.252L366.25 312.828C365.385 309.94 364.331 308.323 362.739 306.086L362.023 305.083C358.845 300.639 351.864 295.479 351.817 295.445C351.817 295.445 344.8 300.624 341.612 305.083L340.896 306.086C339.307 308.324 338.268 309.946 337.385 312.828L337.145 313.666C336.057 317.77 336.606 320.624 337.199 325.065C338.126 332.013 340.77 335.41 343.363 341.923C344.672 345.21 346.418 349.239 347.981 352.766V365.015H355.486Z" fill="white"/>
<path d="M159.244 786V735.6H166.444V786H159.244ZM181.533 786V735.6H187.437L220.773 777H217.677V735.6H224.877V786H218.973L185.637 744.6H188.733V786H181.533ZM259.298 786V735.6H266.498V779.736H293.786V786H259.298ZM322.085 786.576C315.461 786.576 310.253 784.68 306.461 780.888C302.669 777.096 300.773 771.552 300.773 764.256V735.6H307.973V763.968C307.973 769.584 309.197 773.688 311.645 776.28C314.141 778.872 317.645 780.168 322.157 780.168C326.717 780.168 330.221 778.872 332.669 776.28C335.165 773.688 336.413 769.584 336.413 763.968V735.6H343.397V764.256C343.397 771.552 341.501 777.096 337.709 780.888C333.965 784.68 328.757 786.576 322.085 786.576ZM358.158 786V735.6H364.062L386.67 773.688H383.502L405.822 735.6H411.726L411.798 786H404.886L404.814 746.472H406.47L386.598 779.88H383.286L363.27 746.472H365.07V786H358.158ZM426.923 786V735.6H434.123V786H426.923ZM449.212 786V735.6H455.116L488.452 777H485.356V735.6H492.556V786H486.652L453.316 744.6H456.412V786H449.212ZM514.194 757.344H540.114V763.464H514.194V757.344ZM514.842 779.736H544.218V786H507.642V735.6H543.21V741.864H514.842V779.736Z" fill="#E1BA54"/>
</svg>
